<?xml version="1.0" standalone="no"?>
<!DOCTYPE svg PUBLIC "-//W3C//DTD SVG 20010904//EN"
 "http://www.w3.org/TR/2001/REC-SVG-20010904/DTD/svg10.dtd">
<svg version="1.0" xmlns="http://www.w3.org/2000/svg"
 width="220.000000pt" height="220.000000pt" viewBox="0 0 220.000000 220.000000"
 preserveAspectRatio="xMidYMid meet">
<metadata>
Created by potrace 1.14, written by Peter Selinger 2001-2017
</metadata>
<g transform="translate(0.000000,220.000000) scale(0.100000,-0.100000)"
fill="#000000" stroke="none">
<path d="M442 1312 c-29 -42 -61 -88 -71 -101 l-18 -23 -58 81 c-56 81 -82
101 -131 101 -28 0 -26 17 -24 -205 1 -96 5 -162 11 -166 6 -3 25 -3 42 0 l32
7 1 99 c1 55 2 106 3 114 0 8 22 -17 49 -55 39 -57 52 -69 75 -69 24 -1 37 10
78 67 27 37 50 68 52 68 1 0 2 -27 2 -60 0 -33 -4 -60 -9 -60 -5 0 -4 -6 1
-12 5 -7 8 -32 7 -55 -2 -40 -1 -41 32 -45 19 -2 38 -2 42 1 5 4 9 93 9 199
l0 192 -36 0 c-34 -1 -40 -6 -89 -78z"/>
<path d="M780 1195 l0 -195 43 -1 c111 -2 209 0 214 5 8 8 7 56 -1 64 -4 3
-43 6 -87 6 -51 -1 -79 3 -80 10 -9 76 -12 73 99 75 l52 1 0 35 0 34 -77 3
c-75 3 -77 4 -76 28 1 57 -2 55 77 54 41 -1 78 2 83 5 4 3 8 21 9 39 l1 32
-129 0 -128 0 0 -195z"/>
<path d="M1138 1378 c-3 -7 -4 -29 -3 -48 l2 -35 254 -5 c140 -3 337 -3 439 0
l185 5 -1 35 c-1 19 -2 41 -3 48 -2 18 -867 18 -873 0z"/>
<path d="M1796 1119 c-121 -28 -180 -163 -127 -289 30 -71 102 -110 196 -106
121 4 200 85 199 201 -1 94 -53 165 -137 190 -56 17 -74 17 -131 4z m95 -80
c73 -25 106 -104 72 -171 -55 -111 -223 -72 -223 52 0 54 25 96 69 114 44 18
41 18 82 5z"/>
<path d="M1159 1118 c-7 -17 -3 -78 5 -79 6 -1 34 -2 61 -3 l50 -1 2 -80 c1
-44 3 -89 3 -100 1 -11 1 -39 0 -62 -3 -54 4 -63 49 -63 l37 0 1 123 c2 207
-5 184 56 182 28 -1 57 0 63 2 9 3 10 28 5 76 -1 6 -329 11 -332 5z"/>
<path d="M163 832 c-20 -3 -23 -9 -23 -51 l0 -47 440 0 441 0 -3 49 -3 50
-415 1 c-228 1 -425 0 -437 -2z"/>
</g>
</svg>
